<?xml version="1.0" encoding="utf-8"?>
<!-- Generator: Adobe Illustrator 25.3.1, SVG Export Plug-In . SVG Version: 6.00 Build 0)  -->
<svg version="1.1" id="Capa_1" xmlns="http://www.w3.org/2000/svg" xmlns:xlink="http://www.w3.org/1999/xlink" x="0px" y="0px"
	 viewBox="0 0 165.3 92.2" style="enable-background:new 0 0 165.3 92.2;" xml:space="preserve">
<style type="text/css">
	.st0{fill:#007044;}
	.st1{fill:#3D6C43;}
	.st2{fill:#B18C2D;}
	.st3{fill:#E66D2F;}
	.st4{fill:#B7252F;}
	.st5{fill:#FFFFFF;}
	.st6{fill:#CEB581;}
	.st7{fill:#93A151;}
</style>
<g id="Capa_2_1_">
	<g id="Capa_1-2">
		<path class="st0" d="M23,50l2.9-0.2l0.7,0.3l0.2,0.2l0.6-0.2H28l2.7,1l0.6,0.5L32,53l0.4,0.6l-0.3,1.5v1l-0.4,0.4l-0.3,0.6
			l-1.8,1.1l-1.9,0.1l-0.6-0.2h-1.2L25,58.1l-0.6-0.4H24l-0.6-0.4l-0.6-0.9l-0.2-0.7L22.1,55v-0.8l0.4-0.6l0.6-0.5l0.7-0.2l0.8-0.1
			L25,53h0.6l0.4,0.2v0.5l0.2,0.4v1.2l0.5,0.5l0.4,0.5l2.4,0.1l0.9-0.2l0.2-0.3l0.1-1.4l-0.3-0.8L30,53.4l-0.3-0.2l-0.9-0.5
			l-0.2-0.1L28.3,52h-0.8l-1-0.4h-0.6l-0.5-0.3l-0.8,0.2L24,51.4l-0.8,0.2H23l-0.8,0.2L21,53.1L20.6,54l-0.7,0.5l-0.6,1.6l-0.3,0.4
			l0.2,0.5l-0.6,1.1l-0.3,0.2l0.1,0.2v1.3l0.4,0.9l-0.2,1.3l0.5,0.8L18.9,64l1.3,1.3l0.9,1.7l1.5,0.8l1.2,1.2l0.6,0.6l1.2,0.2
			l2.9,1.8l2.4,0.3l1.6,0.7l1.4,0.4h1l1.3,0.3l1.2-0.1l0.9,0.2l1-0.1l0.8,0.2l1-0.4l1.5-0.2l0.7-0.3l0.4,0.1v0.4l-0.8,0.5l-0.8,0.3
			l-0.6,0.4l-1,0.3l-1,0.6h-1.3l-0.6,0.2l-0.7,0.2l-0.6-0.2l-0.4,0.1l-0.8,0.1l-0.7-0.2l-2.3-0.1l-0.7,0.2L29,74.8l-0.4-0.6
			l-0.5,0.1l-1.3-0.1L25.7,74L25,73.9l-0.7-0.4H24L23.2,73h-1.1l-0.8-0.8l-0.6-0.1l-1.4-0.7L17,69l-0.9-0.3L15.3,68l-0.1-0.8l-0.7-1
			l-0.3-1.7l-0.4-0.3l0.4-0.8L14,62.8v-1.3l0.2-0.5l0.1-0.7l-0.6-0.7l0.1-0.5l0.4-0.9v-0.4l0.4-0.9l0.6-0.6l0.2-0.3l0.4-0.2
			l-0.2-0.2l0.5-1l0.8-0.9l1.1-0.9l0.7-0.9l1.5-1l0.5-0.2v-0.2h0.6L23,50z"/>
		<path class="st0" d="M45.8,50.7h0.7l0.5,0.3l0.9,0.3l0.9,1l0.2,1l0.4,0.5l0.3,1v1.1v0.6l-0.5,0.7L49,58.4l-0.1,0.7l-1.3,1.5
			l-0.7,1.3l-0.6,0.5L46,62.8L44.6,64L42,65.6L41.8,67h0.1l0.3-0.4l0.1-0.4l1.4-1l0.5-0.2l0.5-0.3l0.8,0.1l0.9,0.4l1.1,1.1L47.3,67
			l0.5,0.5v1.1l0.9,1.2l0.8,0.3l0.3,0.2l1.3-0.2h0.4l1.2-0.9h0.2l0.5-0.4l0.2-0.2l0.5,0.2l0.1,0.2l-0.6,0.8l-0.5,0.6l-0.2,0.4
			l-2.4,1.3l-1.2,0.2l-1.8-0.6l-0.5-0.6L46,70.9l-0.9-1L44.7,69L44.6,68v-1h-0.1l-1.7,1.2l-1,0.9l-0.5,1.1l-0.4,1.5l-0.8,0.4h-0.7
			l-0.6-0.2l-0.7-0.1l-0.4-0.3v-0.4l0.3-0.5l0.2-1.2L38.2,69l0.4-1.3L38,67.8L37.5,68h-0.7l-0.3-0.2l0.5-0.4l1.5-0.7l0.7-0.8
			l0.4-1.7l0.2-1l0.2-0.6l0.1-1.4l0.3-0.8l1-3.1v-0.4l0.6-1.2l0.4-0.5l0.1-0.6l0.4-0.9l0.4-0.2h0.2l0.7-1.2l0.4-0.6l0.7-0.7
			L45.8,50.7z M46.2,52L46,52.1l-0.5,1.2l-0.4,0.5L44.5,55l-0.5,0.4l0.3,0.5l-0.4,1.2l-0.1,0.7l-0.4,0.3l0.3,0.5l-0.7,1.2l-0.4,1.6
			v0.9v0.3l-0.1,1l-0.2,0.5l0.1,0.2l0.9-0.5l1.1-0.8l0.4-0.5l0.5-0.3l0.4-0.4l1.2-1.9l0.7-1.7l0.1-0.7l0.4-0.6v-1.4l-0.2-0.8V53
			l-0.1-0.2l-0.3-0.1L46.9,52H46.2z"/>
		<path class="st0" d="M56.5,63.8l1.5-0.1l1.7,0.3l0.9,0.5l0.2,0.4l0.3,0.6l0.1,0.6v0.5L61,67.1l-0.3,0.2l-0.3,0.4l-0.6,0.5L59,68.5
			l-0.5,0.1l-0.6,0.3L57.3,69l0.3,0.5v0.4l0.2,0.5l0.4,0.3l0.7,0.4l0.6,0.2h0.3l0.4,0.2l0.5-0.1l0.5,0.1l0.7,0.1l0.8-0.2l0.7-0.2
			h0.5l0.8-0.3l0.6-0.2h0.5l0.3,0.2L66,71.2l-0.3,0.4l-0.3,0.2L65,72.2l-0.4,0.3l-0.7,0.2l-0.6,0.3l-0.7,0.2H62l-0.6,0.2h-0.7
			L60,73.1l-0.6,0.2h-0.5h-0.7L57.3,73l-0.9-0.6l-0.6-0.1l-0.7-0.7l-0.2-0.1l-0.5-0.4l-0.2-0.4l-0.2-0.5l-0.6-0.6L53.4,69l-0.3-0.2
			l-0.2-0.4V68v-0.3l0.1-0.2l-0.1-0.6l0.2-0.6l0.4-0.4l0.3-0.5l0.5-0.2l0.3-0.2v-0.3l0.1-0.1l0.5-0.3l0.4-0.3L56.5,63.8z M57.9,65
			l-0.5,0.2L57,65.6l-0.3,0.5l0.1,0.3l-0.3,0.4l-0.1,0.6l0.4,0.6l0.9-0.2l0.4-0.4l0.6-0.1l0.3-0.5l0.4-0.5v-0.8L59.2,65H57.9z"/>
		<path class="st1" d="M85.1,50.6l0.5,0.1l1.1,0.9l0.1,1.1l-0.4,0.6v0.3L84.9,55l-0.2,0.2l-0.9,0.7l-0.7,0.3l-0.5,0.2l-0.3-0.2
			l0.1-0.4l0.1-0.2l0.6-0.2l1-0.7V54L84,53.5l-0.2-0.1v-1.3l0.4-0.6l0.7-0.4v-0.2L85.1,50.6z"/>
		<path class="st0" d="M87.2,61l0.9,0.1l0.5,0.2l0.5,0.7l0.4,0.3l0.1,0.5l-0.4,0.3h-0.6h-0.8l-0.2-0.3h-0.1l-0.3,0.5l-0.2,0.2
			l-0.2,0.6l0.2,0.5l-0.2,0.6l0.6,0.1l0.7,1.2l0.8,1L88.4,68v1l-1.3,1.5l-0.6,0.3l-0.6,0.8l-0.4,0.2l-0.4,0.1l-0.5,0.3l-0.9,0.4V73
			l-0.8,0.4l-0.4,0.4h-0.3l-0.6-0.2l-0.5,0.1l-0.5-0.2l0.1-0.3l1.1-0.8v-0.2l0.5-0.3l0.9-0.2l0.7-0.5l1.3-0.5l0.2-0.6l0.3-0.6v-0.4
			v-0.7l0.1-0.6v-0.2l-0.4-0.3l-0.9-1.1L84,65.6l-0.3-0.3L83.4,64l0.4-0.6l-0.3-0.2l0.1-0.5l2.5-1.4l0.3-0.1l0.7-0.1L87.2,61z"/>
		<path class="st0" d="M113.4,49.1h0.2l0.9,0.4l0.3,0.4l1.3,0.1l0.3,0.2L117,51l1.5,1.2l0.9,0.9l0.4,0.8l0.1,0.8l0.2,1.1l0.6,0.5
			l0.7,0.9v0.2l-0.4,1.1v1.7l-0.1,0.8l0.2,0.6v0.3l-0.5,1l-0.3,0.5v0.3l1.2,0.5l0.7,0.6l2.1,0.3l0.1,0.4l-0.1,0.3l-0.5,0.1l-2.7-0.2
			l-0.9-0.4l-0.2,0.1l-0.4,1l-0.3,0.8l-0.2,0.3l-0.6,1.2l-0.3,0.4l-0.8,0.6L117,71l-0.8,1l-0.8,0.6l-1.3,0.7l-0.8,0.1l-0.6,0.3
			l-1.5,0.1l-1.7-0.4l-0.6-0.1l-1-0.3h-0.3l-0.2-0.1l-1.4-1l-0.3-0.8l-0.7-1v-0.4l-0.6-0.6l-0.3-0.2l-0.8-1.6l-0.2-1.6l-0.7-0.8
			l-0.1-0.8v-0.9l0.2-0.6l0.1-1.1l-0.3-0.5v-1l0.4-0.4l0.4-0.3l0.3-1.1l0.9-1.2l0.5-1.3l0.2-0.5l1.2-0.7l0.7-0.9l1-0.7l0.4-0.2
			l0.1-0.4l0.2-0.6l1.6-1.2l0.8-0.3l1-0.4l0.7-0.4l0.4-0.1L113.4,49.1z M109.2,57.2l-0.4,0.4l-0.6,1.1l-0.3,1.3l0.1,0.8l-0.5,1.2
			l-0.2,1.2l0.5,0.8l-0.1,0.8l0.4,0.6l0.2,0.5l0.1,0.9l0.6,1l-0.1,0.9l0.2,0.7l0.9,1.5l0.7,0.3l1.2,0.1l1.1,0.1l1.2-0.8l0.2-0.4
			v-0.6l0.8-1.2l0.3-0.9l0.4-1.7l0.6-1l-0.1-0.7l0.1-0.3l-0.9-0.4l-0.6-0.7l-0.6-0.5l-1-0.6l-0.7-1.2l-0.9-0.4l-1-0.8l-1-1.1
			l-0.1-0.5L109.2,57.2z M113.1,53.2l-0.9,1l-0.2,0.9l-0.2,0.6l0.5,1.1l0.5,0.7l0.5,1l0.8,0.5l0.5,0.8l0.6,0.3l0.7,0.1l1.1,0.8
			L117,60l-0.2-0.3l-0.4-0.2l-0.8-1.1l-0.1-0.4l0.1-0.9l-0.2-0.5l0.1-1l-0.2-1l-0.3-0.5l-1.3-0.8L113.1,53.2z"/>
		<path class="st0" d="M136,67.6l-1.3-0.2l-0.1,0.1l-0.3,1.3l-0.6,1.3l-0.3,0.3l-0.3,0.4h-0.4l-0.5,0.6l-0.4,0.4l-0.6,0.2l-0.8-0.6
			l-0.6-0.1l-0.3-0.4l-0.1-1.5l-0.3-0.4l-0.4,0.5l-0.4,1v0.2l-0.3,0.3l-0.5,0.2l-0.2,0.4l-0.5,0.2h-0.4l-0.4-0.3l-0.6-0.6l-0.5-0.4
			v-0.6l-0.6-0.7l-0.3-2.1l-0.3-0.1v-0.5l0.4-0.6v-1.4l0.2-0.4l0.9-0.4h1l0.3,0.2l0.1,1l0.4,0.5l-0.2,0.9v0.8l0.1,0.7l-0.1,0.9V70
			l0.3-0.2l0.1-0.8l0.2-0.3l0.1-0.3l0.4-0.3l0.3-0.3v-1l0.2-0.8l-0.1-0.7l0.7-0.7l0.6-0.3l0.8-0.3h0.4l1.3,1.1l-0.2,1.2L132,69
			l1.7-2.7l0.5-0.5l-0.1-0.3l-0.4-0.7l-0.1-1l0.5-0.5L135,63h0.8l0.6,0.4l0.1,0.6l0.3,0.6l0.1,0.6l-0.2,1.5L136,67.6z"/>
		<path class="st0" d="M139.2,65h0.6l0.4,0.2l1,0.2l0.1,0.3l-0.1,0.4l0.1,0.9l0.5-0.6l0.5-0.3L143,66l0.6,0.3l0.6,0.4l0.2,0.6
			l0.5,0.5l0.1,0.4l0.3,0.4l0.1,0.4l0.4,0.3l0.3,0.4l0.4,0.4l0.6,0.2h0.8l0.5,0.2l0.4-0.2l0.6-0.1l0.5,0.1v0.4l-0.4,0.5l-0.4,0.2
			l-0.4,0.2l-0.5,0.2l-0.9,0.1l-0.9-0.2l-1.1-0.2l-0.8-0.4l-0.6-0.4l-0.1-0.3l-0.3-0.3l-0.2-0.3l-0.5-0.3l-0.4-0.7l-0.4-0.1h-0.4
			l-0.2,0.7l0.1,0.5l-0.1,0.7l0.1,0.6v0.7l-0.6,0.3H140l-0.6,0.1l-0.5-0.2l-0.3-0.3l-0.1-0.8v-0.5l-0.2-0.6v-0.6l-0.2-0.5V68
			l0.2-0.4v-0.5l0.2-0.9v-0.5l0.1-0.4L139.2,65z"/>
		<polygon class="st0" points="79.2,55.6 79.1,54.5 78.9,53.8 78.6,53.3 78.3,52.3 77.4,51.3 76.5,51 76,50.6 75.3,50.6 74.8,50.9 
			74.1,51.6 73.7,52.3 73,53.5 72.8,53.5 72.5,53.7 72.1,54.6 72,55.3 71.7,55.8 71.2,57 71.2,57.4 70.2,60.7 70.1,61.1 69.8,61.4 
			68.4,61.5 67.6,61.3 67.4,61.4 66.9,61.8 66.4,63.2 66.4,63.3 66.7,63.5 67.1,63.4 67.5,63.2 68.1,63.1 69.8,63.2 69.6,63.7 
			69.5,64.7 69.1,66.5 68.5,68.5 68.1,69.9 68.2,70.3 68,71.5 67.7,72 67.7,72.5 67.1,72.8 66.5,74.4 65.5,76.2 67.6,76.2 
			69.7,75.2 70.8,73.4 71.4,69.8 71.6,67.8 71.8,66.2 72.1,64.8 72,64.6 72.1,64.1 72.2,63.3 72.8,63.4 73.2,63 73.5,62.8 
			74.2,62.7 74.6,62.8 75.8,62.4 75.9,62.1 76.5,62.3 78,62.1 79.2,61.7 79.2,61.5 79,61.3 77.9,61 76.6,61.5 76.1,61.2 75.8,61.4 
			75,61.5 73.9,61.3 73.1,61.3 72.4,61.5 72.7,60.2 73.3,58.9 73,58.4 73.4,58 73.5,57.3 73.8,56 73.6,55.5 74.1,55.1 74.7,53.8 
			75.3,53.2 75.9,52.5 75.9,52 76.3,52.6 76.7,53 77,53.1 77.1,53.2 77.4,54.4 78,54.9 78.1,54.9 78.3,55.2 78.5,55.3 78.6,55.7 
			78.9,55.9 79.1,56 79.2,55.1 		"/>
		<polyline class="st2" points="20.2,41.1 0,41.1 0,20.8 20.2,20.8 20.2,41.1 		"/>
		<polyline class="st0" points="40.4,41.1 20.1,41.1 20.1,20.8 40.4,20.8 40.4,41.1 		"/>
		<polyline class="st3" points="20.2,20.8 0,20.8 0,0.5 20.2,0.5 20.2,20.8 		"/>
		<polyline class="st4" points="40.4,20.8 20.1,20.8 20.1,0.5 40.4,0.5 40.4,20.8 		"/>
		<polyline class="st5" points="17.8,28.1 17.5,28.2 17.7,28.2 17.8,28.1 		"/>
		<polyline class="st5" points="17.4,28.3 17.3,28.3 17.3,28.3 17.4,28.3 		"/>
		<polyline class="st5" points="17,28.4 17.2,28.3 17,28.4 		"/>
		<polyline class="st5" points="17.3,28.4 17.3,28.3 17.3,28.3 17.2,28.3 17.3,28.4 		"/>
		<polyline class="st5" points="17.3,28.4 17.4,28.5 17.3,28.4 		"/>
		<path class="st5" d="M17.3,29c0,0,0-0.2-0.1-0.1L16.6,29c-0.1,0-0.2-0.2-0.3-0.1s-0.7,0.3-0.4,0.3c0.5,0,0.8-0.1,1.2-0.1
			c0.3-0.1,0.7-0.2,0.9-0.5l0.3-0.1l-0.4,0.1C17.7,28.6,17.6,29,17.3,29"/>
		<path class="st5" d="M18.8,27.7h0.1c0.1,0.2,0.1-0.2-0.1,0.2h0.1c0.1,0,0.1-0.1,0-0.1c0.4,0,0.1-0.1,0-0.3v0.1"/>
		<polyline class="st5" points="18.7,27.5 18.8,27.5 18.8,27.5 18.7,27.5 18.7,27.5 		"/>
		<path class="st5" d="M16.1,28.5c-0.5,0-1,0-1.6-0.2h-0.1l-0.1-0.1h-0.2h-0.1v0.1l0.1,0.1L14,28.4l-0.1-0.1h-0.2h0.2h0.2l-0.5-0.1
			h-0.1c-0.1,0-0.2,0-0.3-0.1h-0.1l0,0l0,0l-0.4-0.1h-0.3l-0.1-0.1l-0.2,0l0.1,0.2c0.1,0.1,0.2-0.1,0.3,0.1c-0.1-0.2-0.2,0-0.3-0.1
			l-0.1-0.2c-0.1,0-0.3-0.1-0.4-0.2c0.1,0,0.3,0,0.4,0.2l0.2,0l0.1,0.1h0.3L12,27.7c-1.5-0.4-3-1.1-4.4-1.9
			c-0.7-0.5-1.5-1.1-1.6-1.6c-0.5-0.7,1.5-0.7,3,0c0.8,0.3,1.6,0.5,2.5,0.6c0.4,0,0.7-0.3,0.7-0.7c0-0.1,0-0.2-0.1-0.3
			c-0.4-0.8-0.8-0.5-1.8-1.1c0.7,0.4-0.6,0.3-1.2-0.3c-0.9-0.6-2.5-1.2-4.5,0.6c-0.3,0.6-0.3,1.3,0,1.9c1.5,2.6,3.5,2.6,5.4,3.6
			c0.5,0.1,1,0.2,1.6,0.2l0.9,0.3c0.4,0.1,0.8,0.1,1.2,0.1l-1.1-0.1c-0.3-0.1,0.2-0.2,0.4-0.2s0.2,0.2,0.3,0.2h0.6
			c0.1,0,0,0.1,0.1,0.1c0.3,0,0.5-0.2,0.7-0.1l0.4,0.1l0.2,0h0.1v-0.2l0.2,0.1l-0.2-0.1v0.2l1.2-0.3l0,0c-0.2,0-0.5,0-0.7-0.1
			c0.1,0,0.1,0.1,0,0.1l-0.1-0.1c0.2-0.1,0.4-0.1,0.6,0l0.1-0.1l0.1,0.1h0.1C16.4,28.7,16.3,28.6,16.1,28.5"/>
		<path class="st5" d="M13.9,28.3L13.9,28.3l-0.3-0.1C13.6,28.3,13.8,28.3,13.9,28.3"/>
		<polyline class="st5" points="17.8,36 17.5,36.2 17.7,36.1 17.8,36 		"/>
		<polyline class="st5" points="17.4,36.4 17.3,36.4 17.3,36.5 17.4,36.4 		"/>
		<polyline class="st5" points="17,36.8 17.2,36.6 17,36.8 		"/>
		<polyline class="st5" points="17.4,36.5 17.3,36.5 17.3,36.5 17.2,36.6 17.4,36.5 		"/>
		<polyline class="st5" points="17.4,36.5 17.5,36.5 17.4,36.5 		"/>
		<path class="st5" d="M17.8,37c0,0.1-0.1-0.1-0.2,0l-0.4,0.7c-0.1,0.1-0.3,0.1-0.4,0.2c-0.1,0.3-0.7,0.7-0.3,0.5
			c0.6-0.2,0.7-0.8,1.1-1.2l0.7-1.2l0.2-0.3l-0.4,0.3C18,36.3,18,36.6,17.8,37"/>
		<path class="st5" d="M18.6,33.9c0,0.1,0,0.2,0,0.2c-0.2,0.2-0.3,0.4-0.2,0.7l0.1-0.1c0-0.1,0-0.2-0.1-0.1c0.2-0.2,0.3-0.5,0.4-0.8
			L18.6,33.9"/>
		<polyline class="st5" points="18.8,33.7 18.8,33.9 18.8,33.9 18.8,33.7 18.8,33.7 		"/>
		<path class="st5" d="M16.4,37.8l-1.9,0.7l-0.1,0.1h-0.2L14,38.6h-0.1l0,0v0.1l0.1,0.1l-0.1-0.1h-0.2h-0.3h0.3h0.2l0,0h-0.6h-0.1
			c-0.1,0.1-0.3,0.1-0.4,0H12l-0.3,0.1l-0.1-0.1l-0.2,0.1l0.2,0.1c0.1,0.1,0.3-0.2,0.4,0c-0.1-0.2-0.3,0.1-0.4,0l-0.2-0.1
			c-0.2,0-0.4,0-0.5-0.2c0.2,0,0.4,0,0.5,0.2l0.2-0.1l0.1,0.1l0.3-0.1c-0.3,0-0.7,0-1,0c-2-0.5-4.1-0.8-5.5-2.5
			c-0.8-0.8-1.3-1.8-1.5-2.9c-0.6-2-0.4-4.2,0.5-6.1c0.3-0.8,0.8-2.2,1.2-2.9c0.2-1.1-0.7-1-0.8-1c-0.9,0.3-0.9,1-1.8,2.2
			c0.5-0.9,0.2,0.8-0.5,1.6c-1,1.2-0.7,3.4-0.6,5.2l0.3,1.5c0.7,2.9,3.2,4.8,6,5.7c0.7,0.1,1.4,0.1,2.1,0.1c0.4,0.1,0.9,0.2,1.3,0.2
			c0.5,0,1.1-0.1,1.6-0.2c-0.5,0.1-0.9,0.1-1.6,0.2c-0.4,0,0.3-0.2,0.6-0.3c0.1,0,0.3,0.2,0.4,0.1l0.7-0.2c0.1,0,0.1,0.1,0.2,0.1
			c0.4,0,0.6-0.4,0.8-0.4l0.5-0.1l0.3-0.1l0.2-0.1l-0.2-0.2l0.3-0.1l-0.3,0.1l0.2,0.2c0.4-0.3,1-0.4,1.2-0.9l0,0
			C16.5,38,16.3,38,16,38c0.1,0,0.1,0,0,0.1h-0.1c0.2-0.2,0.5-0.2,0.7-0.3c0-0.1,0-0.1,0.1-0.2h0.1l0.1-0.1
			C16.7,37.6,16.6,37.6,16.4,37.8"/>
		<path class="st5" d="M13.7,38.7h0.1h-0.6C13.4,38.8,13.5,38.7,13.7,38.7"/>
		<polyline class="st5" points="14.8,29 15.2,29.1 15,29 14.8,29 		"/>
		<polyline class="st5" points="15.6,29.1 15.7,29.1 15.8,29.1 15.6,29.1 		"/>
		<polyline class="st5" points="16.4,29 16,29 16.4,29 		"/>
		<path class="st5" d="M15.8,29C15.8,29,15.9,29,15.8,29L15.8,29l0.2,0.1L15.8,29"/>
		<polyline class="st5" points="15.8,29 15.7,28.9 15.8,29 		"/>
		<path class="st5" d="M16,28.4c0.1,0,0.1,0.2,0.2,0.1l0.9-0.2c0.1-0.1,0.4,0.1,0.5,0c0.4-0.1,0.9-0.6,0.5-0.5
			c-0.6,0.2-1.2,0.4-1.8,0.4c-0.6,0.1-1.1,0.1-1.7,0.1l-0.5-0.1l0.6,0.2C15.2,28.6,15.6,28.4,16,28.4"/>
		<path class="st5" d="M11.7,28.3h0.2c0.3,0.2,0.6,0.3,1,0.3l-0.1-0.1c-0.2,0-0.2,0-0.1,0.1c-0.4-0.2-0.7-0.3-1.1-0.4
			C11.6,28.2,11.6,28.3,11.7,28.3"/>
		<polyline class="st5" points="11.3,28.1 11.6,28.2 11.6,28.1 11.3,28.1 11.3,28.1 		"/>
		<path class="st5" d="M18,28.6c1.1-0.2,1.5-1.2,2-2l0.1-0.2l0.1-0.2l0.1-0.4v-0.1l0,0c0-0.1,0-0.1-0.1,0l-0.1,0.1l0.1-0.1l0.1-0.2
			l0.1-0.4l-0.1,0.4v0.2v0.1l0.2-0.9v-0.2c0-0.2,0-0.5,0.1-0.6V24l0,0v-0.1l0.1-0.7l-0.1-0.5l0.1-0.1l0-0.3l-0.2,0.3
			c-0.1,0.1,0.2,0.4,0,0.5c0.2-0.2-0.1-0.4,0-0.5l0.2-0.3c0-0.2,0.1-0.5,0.2-0.7c0,0.3-0.1,0.5-0.2,0.7l0,0.3l-0.1,0.1l0.1,0.5
			l0.2-1.3c0.5-3,2.2-5.2,4.4-7.3c1.2-1,2.5-2,3.9-2.8c1.4-0.6,2.7-1.3,4-1.9C33.7,9.8,38,9.5,36.4,6c-1.2-1.7-3.9-2-5.4-1.7
			c-2,1.1-0.4,1.3-0.4,1.3c1,0.2,1.7-0.1,3.4,0.7c-1.3-0.6,1.6-0.1,1.2,0.9C35.3,7.6,32,8.2,30,9.5c-0.6,0.2-1.1,0.6-1.8,0.9
			c-3.2,2-5.8,4.7-7.6,8c-0.4,0.9-0.6,1.8-0.6,2.8c-0.1,0.6-0.3,1.3-0.3,1.8c-0.1,0.8,0,1.6,0,2.1c0.1-0.7,0.1-1.3,0.1-2
			c0-0.5,0.2,0.4,0.2,0.8c0,0.2-0.2,0.4-0.1,0.5v0.9c0,0.1-0.2,0.1-0.1,0.2c-0.1,0.4,0.2,0.9,0,1l-0.4,0.4l-0.2,0.3L19,27.4h0.2
			L19,27.7l0.2-0.3H19c-0.2,0.6-0.8,0.8-1.4,1.1l0,0l1.1-0.3c-0.2,0-0.2,0,0-0.1h0.2c-0.2,0.3-0.6,0.4-0.9,0.4l-0.2,0.1
			c-0.1,0-0.1-0.1-0.1-0.1h-0.2c0.2,0.1,0.5,0.1,0.7,0.1"/>
		<path class="st5" d="M20.3,25.5v0.2l0.2-0.8C20.4,25.1,20.3,25.3,20.3,25.5"/>
		<polyline class="st5" points="16.7,25.9 16.6,25.9 16.6,25.9 16.7,25.9 		"/>
		<polyline class="st5" points="16.5,25.8 16.5,25.8 16.5,25.8 16.5,25.8 		"/>
		<polyline class="st5" points="16.4,25.8 16.5,25.8 16.4,25.8 		"/>
		<polyline class="st5" points="16.5,25.9 16.5,25.8 16.5,25.8 16.5,25.8 16.5,25.9 		"/>
		<polyline class="st5" points="16.5,25.9 16.5,25.9 16.5,25.9 		"/>
		<path class="st5" d="M16.3,26.2L16.3,26.2l-0.2-0.1V26c-0.1,0-0.3,0-0.2,0.1L16.3,26.2l0.3,0l0.1,0l-0.1-0.1
			C16.5,26.1,16.4,26.1,16.3,26.2"/>
		<path class="st5" d="M17.1,26.2L17.1,26.2c0-0.1-0.1-0.1-0.1-0.1v0l0,0l0.1,0.1V26.2"/>
		<polyline class="st5" points="17.1,26.3 17.1,26.3 17.1,26.3 17.1,26.3 17.1,26.3 		"/>
		<path class="st5" d="M16.1,25.7l-0.4-0.2h-0.1v0h-0.1l0,0l0,0l0,0v0h-0.1h0.1l0,0l-0.1-0.1l0,0l-0.1-0.1l0,0l-0.1-0.1h-0.1v-0.1
			h-0.1v0.1c0,0.1,0.1-0.1,0.1,0c0-0.1-0.1,0-0.1,0v-0.1L15.1,25l0.1,0.1h0.1v0.1h0.1l-0.2-0.1l-1.3-0.7L13.1,24
			c-0.5-0.3-1-0.3-1.5-0.6c-0.3-0.1-0.6-0.2-0.8-0.1c-0.3,0.1-0.1,0.6-0.1,0.6c0.2,0.4,0.3,0.2,0.6,0.5c-0.2-0.1,0.2-0.2,0.4,0.1
			s0.6,0.1,1,0.4l0.3,0.1c0.5,0.3,1,0.3,1.5,0.6h0.4l0.2,0.1l0.3,0.1l-0.4,0c-0.1,0,0.1-0.1,0.2-0.1l0.1,0.1h0.2v0.1
			c0.1,0,0.2-0.1,0.2,0l0.1,0.1h0.1l0,0v-0.1v0.1v-0.1v0.1h0.4L16,25.7v0v-0.1C16.1,25.7,16.1,25.7,16.1,25.7L16.1,25.7l0,0.2l0,0
			L16.1,25.7"/>
		<polyline class="st5" points="15.6,25.4 15.6,25.4 15.5,25.4 15.6,25.4 		"/>
		<path class="st2" d="M64.4,21.4c-1.7,0.7-3.6,1.1-5.4,1.1c-1.7,0.1-3.3-0.2-4.9-0.8c-4.1-1.8-6.6-5.8-6.5-10.2
			c-0.1-3.2,1.1-6.3,3.3-8.6C53.2,0.6,55.6,0,58.7,0c1.8,0,3.8,0.8,4.8,0.8c0.2,0,0.4-0.1,0.6-0.2h0.6v5.4h-0.5
			c-1.4-1.3-3.4-2-5.3-1.9c-3.6,0-6.4,2.9-6.4,7.4c0,3.9,2.3,7.2,6.7,7.2c2,0,3.8-0.8,5.2-2.2l0.5,0.1L64.4,21.4"/>
		<path class="st2" d="M85,5.9v6.5c0,3,0,5-1.6,7c-1.8,2.1-4.5,3.2-7.3,3.1c-5.8,0-8.7-3.2-8.7-8.1V5.9c0-2.9-0.1-4.6-1.6-4.9V0.6
			c1.3,0,2.7,0.1,3.9,0.1s2.5-0.1,4-0.1v0.5c-1.4,0.3-1.5,1.9-1.5,4.9v6.7c0,3.5,0.4,5.9,4,5.9c1.4,0.1,2.7-0.6,3.4-1.8
			c0.6-1.1,0.6-2.5,0.6-4.5V5.9c0-3-0.1-4.6-1.5-4.9V0.6c1.5,0,2.9,0.1,3.9,0.1c1.3,0,2.6,0,4-0.1v0.5C85.1,1.3,85,3.1,85,5.9"/>
		<path class="st2" d="M92.2,22.5c-1.9-0.1-3.7-0.4-5.4-1.1l-0.5-4.9l0.5-0.1c1.2,1.6,3.1,2.5,5.1,2.3c2,0,3.5-1,3.5-2.7
			c0-0.7-0.3-1.4-0.9-1.9c-1.5-1-3.4-2.1-5.6-3.3c-1.4-1.1-2.3-2.7-2.3-4.5C86.4,3,88.9,0.2,92.2,0c0.3,0,0.5,0,0.8,0
			c1.6,0.1,3.1,0.3,4.6,0.7c0.2,0,0.5-0.1,0.7-0.2h0.6v5.4h-0.6c-1-1.4-2.6-2.3-4.4-2.2c-2.1,0-2.8,1.2-2.8,2.2c0,3.2,8.7,3,8.7,9.7
			C99.9,20,96.9,22.5,92.2,22.5"/>
		<path class="st2" d="M115.6,5.9c-0.5-1.1-1.5-1.4-3.6-1.4h-1.4v12.1c0,2.9,0.1,4.6,1.7,4.9V22c-1.3,0-2.7-0.1-4-0.1s-2.7,0-4,0.1
			v-0.5c1.5-0.3,1.6-2,1.6-4.9V4.4h-1.3c-2.1,0-3.2,0.3-3.7,1.4h-0.5l0.5-5.3h14.8l0.5,5.3H115.6"/>
		<path class="st2" d="M127.3,4c-3.3,0-6.3,2.8-6.3,7.3c0,4.3,2.9,7.2,6.3,7.2c3.4,0,6.3-2.8,6.3-7.2S130.8,4,127.3,4z M127.4,22.5
			c-6,0.2-11.1-4.5-11.3-10.5c0-0.2,0-0.5,0-0.7c0-6.5,4.2-11.3,11.1-11.3c1.8-0.1,3.7,0.3,5.3,1.1c3.8,2,6.1,5.9,5.9,10.2
			C138.5,17.2,134.4,22.5,127.4,22.5"/>
		<path class="st2" d="M160.8,21.9c-1.1,0-2.1,0-3.1,0.1v-0.5c0.5-0.2,0.9-0.7,0.8-1.3c-0.1-0.4-0.1-0.8-0.2-1.2l-1.9-8.4l-5.6,12
			h-0.7l-5.4-12l-2.2,8.8c-0.1,0.4-0.2,0.7-0.2,1.1c0,0.6,0.2,0.9,0.7,1V22c-1.1,0-2.2-0.1-3.3-0.1s-1.9,0-2.8,0.1v-0.5
			c0.8-0.3,1-1,1.4-2.5l5.2-18.5h0.6l6.5,14.1l6.6-14.1h0.6l5.4,18.9c0.2,0.9,0.7,1.7,1.5,2.1V22C163.3,22,161.9,21.9,160.8,21.9"/>
		<path class="st6" d="M62.5,40.7c-1.5,0.6-3.2,0.8-4.8,0.8c-6.1,0-9.5-4.2-9.5-8.9c-0.1-3.2,1.5-6.3,4.3-8c1.5-0.9,3.3-1.3,5.1-1.2
			c1.4,0.1,2.8,0.4,4.2,0.6c0.2,0,0.4-0.1,0.6-0.2h0.4v3.7h-0.3c-1.3-1.1-3-1.6-4.7-1.5c-3.5,0-6,2.6-6,6.4c0,3.5,2.3,6.3,6.1,6.3
			c1.7,0,3.4-0.6,4.7-1.8l0.3,0.1L62.5,40.7"/>
		<path class="st6" d="M79.4,28v5.9c0.1,1.4-0.1,2.8-0.6,4.1c-1,2.3-3.4,3.6-6.7,3.6c-3.1,0-5.3-1.1-6.5-3.1
			c-0.6-1.1-0.8-2.3-0.8-3.5V28c0-2.3-0.2-3.5-1.4-3.7V24c1,0,2,0,3,0s2,0,3,0v0.3c-1.2,0.2-1.3,1.3-1.3,3.7v5.9
			c0,2.1,0.2,3.5,1.4,4.3c0.7,0.5,1.6,0.7,2.5,0.7c1.6,0.1,3.1-0.9,3.6-2.4c0.2-0.9,0.3-1.8,0.3-2.8V28c0-2.4-0.2-3.5-1.3-3.7V24
			c1,0,2.1,0,3.1,0s2.1,0,3,0v0.3C79.6,24.5,79.4,25.7,79.4,28"/>
		<path class="st6" d="M92.4,41.1H81.5v-0.3c1.2-0.2,1.3-1.5,1.3-3.7v-9c0-2.2-0.1-3.5-1.3-3.7V24c1.1,0,2.2,0,3.1,0s1.9,0,3,0v0.3
			c-1.2,0.2-1.3,1.4-1.3,3.7v7.8c0,2.3-0.1,2.8,2,2.8h1.3c1.7,0,2.5-0.4,2.9-1.4l0.3,0L92.4,41.1"/>
		<path class="st6" d="M96.7,41c-1.1,0-2.1,0-3.1,0v-0.3c1.2-0.3,1.3-1.4,1.3-3.7v-9c0-2.2-0.1-3.5-1.3-3.7V24c1,0,2.1,0,3.1,0
			s2,0,3,0v0.3c-1.2,0.2-1.4,1.4-1.4,3.7v9c0,2.4,0.2,3.5,1.4,3.7V41C98.7,41,97.7,41,96.7,41"/>
		<path class="st6" d="M116.6,28v13.7h-0.4L104.7,30v7c0,2.3,0.1,3.5,1.4,3.7V41c-0.9,0-2,0-3,0s-1.9,0-2.9,0v-0.3
			c1.2-0.3,1.3-1.5,1.3-3.7V23.1h0.5l11.6,11.8V28c0-2.3-0.1-3.6-1.4-3.7V24c1.1,0,2.1,0,2.9,0s1.8,0,2.9,0v0.3
			C116.8,24.5,116.7,25.8,116.6,28"/>
		<path class="st6" d="M126.5,29.1l-2.4,5.4h4.7C128.8,34.5,126.5,29.1,126.5,29.1z M133.4,41c-1,0-2.2,0-3.2,0v-0.3
			c0.4,0,0.8-0.4,0.7-0.8c0,0,0,0,0,0c0-0.3-0.1-0.6-0.2-0.9l-0.8-2h-6.7l-0.9,2.1c-0.1,0.3-0.2,0.6-0.3,0.9c0,0.4,0.2,0.6,0.7,0.7
			V41c-1,0-2,0-3,0c-0.7,0-1.4,0-2.2,0v-0.3c0.8-0.3,1-0.9,1.5-2l7.5-15.6h0.4l7.5,16c0.3,0.7,0.8,1.3,1.4,1.8v0.3
			C135,41.1,134.2,41.1,133.4,41"/>
		<path class="st6" d="M149.4,41.2c-1.7,0-2.3-0.3-3.4-1.9l-4.7-7.3l0.2-0.2c0.3,0.1,0.6,0.1,0.9,0.1c2.1,0,3.5-1.2,3.5-2.9
			c0-1.3-1-2.7-3.7-2.7c-0.6,0-1.1,0-1.7,0.1V37c0,2.4,0.2,3.5,1.4,3.7V41c-1,0-2,0-3.1,0s-2.1,0-3,0v-0.3c1.2-0.3,1.3-1.4,1.3-3.7
			v-9c0-2.3-0.1-3.5-1.3-3.7V24h6.6c1.6-0.1,3.2,0.2,4.6,0.8c1.5,0.8,2.5,2.4,2.4,4.1c0,2.1-1.4,4-3.5,4.4l4,6
			c0.6,0.9,1,1.3,1.6,1.5v0.3C150.9,41.2,150.1,41.2,149.4,41.2"/>
		<path class="st6" d="M163.1,26.1l-4.4,7.4V37c0,2.4,0.1,3.5,1.3,3.7V41c-1,0-2,0-3,0s-2.1,0-3,0v-0.3c1.2-0.3,1.4-1.4,1.4-3.7
			v-3.5l-4.3-7.2c-0.8-1.2-1.3-1.9-2.1-2.1v-0.3c0.8,0,1.6,0,2.4,0c1,0,2.1,0,3.2,0v0.3c-0.4,0-0.6,0.2-0.6,0.5
			c0,0.2,0.1,0.4,0.2,0.6l2.9,5.2l2.9-5.1c0.1-0.2,0.2-0.4,0.2-0.7c0-0.3-0.3-0.4-0.6-0.4v-0.3c1,0,2,0,3,0c0.8,0,1.6,0,2.4,0v0.3
			C164.3,24.5,163.9,25,163.1,26.1"/>
		<path class="st0" d="M147.5,58.2h2.3v0.4h-0.9V61h-0.5v-2.4h-0.9V58.2z"/>
		<path class="st0" d="M150.1,58.2h0.7l0.8,2.2l0,0l0.8-2.2h0.7V61h-0.5v-2.1l0,0l-0.8,2.1h-0.4l-0.8-2.2l0,0V61h-0.5L150.1,58.2z"
			/>
		<path class="st2" d="M161,2.4c0-1.2,1-2.2,2.2-2.2c1.2,0,2.2,1,2.2,2.2s-1,2.2-2.2,2.2l0,0C162,4.5,161,3.6,161,2.4z M164.8,2.4
			c0-0.9-0.7-1.6-1.6-1.6s-1.6,0.7-1.6,1.6s0.7,1.6,1.6,1.6S164.8,3.3,164.8,2.4z M164.3,3.6h-0.6l-0.5-1h-0.4v1h-0.5V1.2h1.1
			c0.6,0,0.9,0.2,0.9,0.7s-0.2,0.6-0.6,0.6L164.3,3.6z M163.4,2.2c0.3,0,0.4-0.1,0.4-0.4s-0.3-0.3-0.6-0.3h-0.5v0.7H163.4z"/>
		<path class="st7" d="M144.8,91.7c-9.5,0.5-32.3,0.9-43.1-0.3c-5.9-0.7-9.4-6.8-9.4-6.8s5.7-7.9,18.4-7.5c10,0.3,25.6,0.8,36.1-0.3
			c8.4-2.3,11.8-1.7,13.2-1.6c1.1,1.1,2.1,6.6-2.5,11.4C154.2,90,153.3,91.2,144.8,91.7z"/>
		<path class="st5" d="M103.5,90.3c-0.4,0-0.7-0.2-0.8-0.6c0,0,0-0.1,0-0.1c-0.1-1-0.2-2-0.2-3.1c0-0.5,0-1,0-1.6
			c0.1-1.8,0.2-3.4,0.3-4.8c0-0.3,0.1-0.6,0.2-0.8c0.1-0.1,0.3-0.2,0.5-0.2c0.1,0,0.2,0,0.3,0.1c0.1,0.1,0.1,0.1,0.2,0.2
			c0,0.1,0,0.2,0,0.3c0,0.1,0,0.2,0,0.4s0,0.5-0.1,0.7c0.6-0.6,1.4-1,2.2-1c0.4,0,0.9,0.1,1.2,0.4c0.3,0.3,0.5,0.8,0.5,1.2
			c0,0.5-0.1,0.9-0.3,1.4c-0.4,0.8-1,1.6-1.7,2.1c-0.6,0.5-1.3,0.8-2,1c0,1.1,0,1.9,0.2,2.6c0,0.4,0.1,0.8,0.1,1
			C104.2,90.1,104,90.3,103.5,90.3z M104,85.2c0.7-0.3,1.3-0.8,1.8-1.4c0.6-0.6,0.9-1.5,0.9-2.3c0-0.5-0.2-0.7-0.7-0.7
			c-0.6,0-1.2,0.3-1.5,0.7c-0.4,0.8-0.6,1.7-0.5,2.5L104,85.2z"/>
		<path class="st5" d="M109.8,90.1c-0.5,0-0.9-0.3-1-0.7c-0.3-1-0.4-2-0.3-3c0-1.8,0-3.4,0.2-4.7c0-0.8,0.1-1.7,0.5-2.4
			c0.1-0.1,0.3-0.1,0.4-0.1c0.3,0,0.4,0.1,0.5,0.3c0,0.1,0,0.2,0,0.2c0,0.1,0,0.2,0,0.3c-0.2,1.6-0.3,3.2-0.2,4.9
			c0,2.8,0.1,4.2,0.4,4.2c0.1,0,0.2-0.1,0.2-0.1c0.1-0.2,0.3-0.2,0.5-0.1c0,0,0.1,0.1,0.1,0.1c0.1,0.1,0.1,0.2,0.1,0.2
			c0,0.2-0.2,0.4-0.4,0.6C110.4,89.9,110.1,90,109.8,90.1z"/>
		<path class="st5" d="M114.4,89c-0.4,0-0.7-0.1-0.7-0.4c-0.1-0.7-0.1-1.3-0.1-2c0-0.4,0-0.8,0-1.2c-0.2,0.6-0.3,1.1-0.6,1.7
			c-0.3,0.8-0.7,1.1-1.2,1.1c-0.8,0-1.2-0.6-1.2-1.8c0-0.5,0-1,0.2-1.5c0.1-0.9,0.6-1.7,1.3-2.2c0.3-0.2,0.6-0.3,1-0.3
			c0.3,0,0.6,0.1,0.8,0.3v-0.4c0-0.2,0.1-0.4,0.2-0.5c0.1-0.1,0.3-0.1,0.5-0.1c0.3,0,0.5,0.1,0.5,0.4c0,0.1,0,0.1,0,0.2
			c-0.1,0.9-0.2,1.7-0.2,2.6c0,1.1,0.1,2.2,0.2,3.3c0,0.1,0,0.3,0,0.4C115.1,88.9,114.9,89,114.4,89z M112.1,87.1
			c0.1,0,0.4-0.6,0.9-1.7c0.3-0.6,0.5-1.3,0.6-2c0-0.1-0.1-0.2-0.1-0.3c-0.1-0.1-0.2-0.1-0.3-0.1c-0.2,0-0.4,0.1-0.5,0.3
			c-0.3,0.5-0.5,1.2-0.6,1.8c-0.1,0.5-0.1,1.1-0.1,1.6C111.9,87,111.9,87.2,112.1,87.1L112.1,87.1z"/>
		<path class="st5" d="M119.4,89.2c-0.4,0-0.6-0.1-0.6-0.4s0-0.6,0.1-1.1c0.1-0.9,0.1-1.7,0.1-2.4c0-0.3,0-0.6,0-1
			c0-0.3-0.1-0.5-0.2-0.5s-0.4,0.2-0.6,0.7c-0.3,0.6-0.5,1.2-0.6,1.8c-0.2,0.7-0.2,1.3-0.2,2c0,0.2-0.2,0.3-0.6,0.3
			s-0.7-0.1-0.7-0.3c-0.1-0.5-0.2-1-0.1-1.4c0-0.3,0-0.6,0-0.9c0.1-1.9,0.3-2.9,0.5-3.1c0.1-0.1,0.3-0.1,0.5-0.1
			c0.1,0,0.3,0,0.4,0.1c0.1,0.1,0.1,0.1,0.1,0.2c0,0,0,0.2,0,0.3c-0.1,0.7-0.2,1.4-0.2,2.1c0.2-0.7,0.5-1.4,0.9-2
			c0.2-0.3,0.5-0.5,0.9-0.5c0.3,0,0.6,0.2,0.8,0.5c0.2,0.4,0.3,0.7,0.4,1.2c0.1,0.6,0.1,1.3,0.1,1.9c0,0.3,0,0.8-0.1,1.3
			c0,0.4-0.1,0.7-0.1,1.1C120.1,89.1,119.9,89.2,119.4,89.2z"/>
		<path class="st5" d="M122.5,89.5c-0.4,0-0.8-0.3-0.9-0.7c-0.2-0.6-0.3-1.3-0.3-2v-0.9c0-0.7,0-1.3,0-2.1h-0.5
			c-0.2,0-0.3-0.1-0.3-0.4s0.1-0.4,0.4-0.5h0.4c0-0.5,0.1-1,0.1-1.6s0.1-0.6,0.3-0.7c0.1-0.1,0.3-0.1,0.4-0.1c0.3,0,0.5,0.2,0.5,0.6
			v0.2c0,0.4-0.1,1-0.1,1.6h0.9c0.2,0,0.3,0.1,0.3,0.4s-0.1,0.4-0.3,0.5l-0.9,0.1c0,0.2,0,0.4,0,0.6c0,2.8,0.1,4.2,0.4,4.2
			c0.1,0,0.3-0.2,0.5-0.4c0.1-0.1,0.2-0.2,0.3-0.2c0.1,0,0.2,0,0.3,0.1c0.1,0.1,0.1,0.2,0.1,0.3c0,0.1,0,0.2-0.1,0.3
			C123.7,89.1,123.1,89.4,122.5,89.5z"/>
		<path class="st5" d="M128.1,80.3c0.5-0.4,1.1-0.5,1.7-0.5c0.4,0,0.9,0.1,1.2,0.4c0.3,0.3,0.5,0.8,0.5,1.2c0,1-0.8,2-2.2,2.8
			c1-0.1,2,0.2,2.7,0.8c0.3,0.4,0.5,0.9,0.5,1.4c0,0.5-0.1,0.9-0.3,1.3c-0.2,0.5-0.5,0.9-0.9,1.2c-0.1,0.1-0.3,0.3-0.5,0.4
			c-0.9,0.6-1.9,0.9-2.9,0.9c-0.6,0-1-0.5-1.2-1.6c-0.1-0.9-0.2-1.8-0.2-2.8c0-0.5,0-1,0-1.5c0.1-1.6,0.2-3.2,0.3-4.8
			c0-0.3,0.3-0.6,0.6-0.6c0,0,0,0,0.1,0c0.4,0,0.5,0.2,0.5,0.6c0,0.1,0,0.2,0,0.3V80.3z M128,84.2c0.5-0.3,0.9-0.6,1.4-1
			c0.6-0.5,0.9-1.2,0.9-1.9c0-0.5-0.2-0.7-0.7-0.7c-0.3,0-0.6,0.1-0.9,0.2c-0.2,0.1-0.5,0.3-0.7,0.5c0,0.7-0.1,1.5-0.1,2.3L128,84.2
			z M128.4,89.2c0.6-0.1,1.2-0.3,1.6-0.7c0.4-0.3,0.8-0.7,1-1.1c0.2-0.3,0.2-0.6,0.2-0.9c0-0.5-0.3-0.9-0.6-1.1
			c-0.5-0.3-1-0.5-1.6-0.4c-0.3,0-0.7,0-1,0.1C128,86.4,128.1,87.8,128.4,89.2L128.4,89.2z"/>
		<path class="st5" d="M136.8,89c-0.4,0-0.7-0.1-0.7-0.4c-0.1-0.7-0.1-1.3-0.1-2c0-0.4,0-0.8,0-1.2c-0.2,0.6-0.3,1.1-0.6,1.7
			c-0.3,0.8-0.7,1.1-1.2,1.1c-0.8,0-1.2-0.6-1.2-1.8c0-0.5,0-1,0.1-1.5c0.1-0.9,0.6-1.7,1.3-2.2c0.3-0.2,0.6-0.3,1-0.3
			c0.3,0,0.6,0.1,0.8,0.3v-0.4c0-0.2,0.1-0.4,0.2-0.5c0.1-0.1,0.3-0.1,0.5-0.1c0.3,0,0.5,0.1,0.5,0.4c0,0.1,0,0.1,0,0.2
			c-0.1,0.9-0.2,1.7-0.2,2.6c0,1.1,0,2.2,0.2,3.3c0,0.2,0,0.3,0,0.4C137.4,88.9,137.2,89,136.8,89z M134.4,87.1
			c0.1,0,0.4-0.6,0.9-1.7c0.3-0.6,0.5-1.3,0.6-2c0-0.1-0.1-0.2-0.1-0.3c-0.1-0.1-0.2-0.1-0.3-0.1c-0.2,0-0.4,0.1-0.5,0.3
			c-0.3,0.5-0.5,1.2-0.6,1.8c-0.1,0.5-0.1,1.1-0.1,1.6C134.2,87,134.2,87.2,134.4,87.1L134.4,87.1z"/>
		<path class="st5" d="M139.7,89.5c-0.5,0-0.9-0.2-1.2-0.6c-0.4-0.5-0.5-1.1-0.5-1.6c0-0.1,0-0.2,0.1-0.3c0.1-0.1,0.2-0.1,0.3-0.1
			c0.3,0,0.5,0.1,0.5,0.4c0,0.4,0.1,0.7,0.3,1c0.1,0.2,0.3,0.3,0.6,0.3c0.3,0,0.5-0.1,0.7-0.2c0.2-0.2,0.4-0.5,0.3-0.8
			c0-0.2-0.1-0.5-0.2-0.7c-0.1-0.2-0.3-0.4-0.4-0.5c-0.2-0.1-0.4-0.3-0.6-0.4l-0.6-0.5c-0.4-0.3-0.7-0.8-0.7-1.4
			c0-0.6,0.2-1.1,0.7-1.5c0.4-0.3,0.8-0.4,1.2-0.4c0.4,0,0.8,0.1,1,0.5c0.2,0.3,0.3,0.6,0.3,1c0,0.1,0,0.2,0,0.2
			c0,0.2-0.2,0.4-0.4,0.4c0,0,0,0-0.1,0c-0.3,0-0.5-0.1-0.5-0.4v-0.4c0-0.4-0.1-0.6-0.4-0.6c-0.2,0-0.4,0.1-0.5,0.2
			c-0.2,0.2-0.3,0.5-0.3,0.8c0,0.2,0.1,0.3,0.2,0.5c0.1,0.2,0.3,0.3,0.4,0.4c0.2,0.1,0.4,0.3,0.6,0.4c0.2,0.2,0.4,0.3,0.7,0.5
			c0.2,0.2,0.4,0.4,0.5,0.6c0.1,0.3,0.2,0.6,0.2,0.9c0,0.7-0.3,1.3-0.8,1.7C140.7,89.3,140.2,89.5,139.7,89.5z"/>
		<path class="st5" d="M144.1,88.6c-0.6,0-1.2-0.4-1.4-1c-0.2-0.6-0.4-1.2-0.4-1.8c0-0.9,0.1-1.7,0.6-2.5c0.3-0.5,0.8-0.8,1.3-0.8
			c0.5,0,0.9,0.2,1.1,0.6c0.1,0.3,0.2,0.6,0.2,0.8c0,0.6-0.2,1.2-0.5,1.6c-0.4,0.4-0.9,0.6-1.5,0.6c0,0.4,0.1,0.7,0.2,1.1
			c0.1,0.3,0.2,0.4,0.4,0.4s0.5-0.2,0.8-0.6c0.1-0.1,0.2-0.2,0.3-0.2c0.1,0,0.2,0,0.3,0.1c0.1,0.1,0.1,0.2,0.1,0.3
			c0,0.1,0,0.2-0.1,0.3C145.3,88.2,144.7,88.6,144.1,88.6z M143.6,85.7c0.4,0,0.8-0.2,1-0.6c0.1-0.2,0.2-0.5,0.2-0.8
			c0-0.2,0-0.4-0.1-0.6c-0.1-0.1-0.2-0.2-0.3-0.2c-0.2,0-0.3,0.1-0.4,0.3c-0.1,0.3-0.2,0.5-0.2,0.8C143.6,85,143.6,85.4,143.6,85.7z
			"/>
		<path class="st5" d="M150.1,89.3c-0.4,0.1-0.7-0.2-0.8-0.6c0,0,0,0,0,0c-0.1-0.9-0.2-1.7-0.1-2.6c0-0.4,0-0.8,0-1.2
			c-0.2,0.7-0.4,1.4-0.7,2.1c-0.3,0.8-0.7,1.1-1.2,1.1c-0.8,0-1.2-0.6-1.2-1.8c0-0.5,0-1,0.1-1.5c0.1-0.9,0.6-1.7,1.3-2.2
			c0.3-0.2,0.6-0.3,1-0.3c0.3,0,0.6,0.1,0.8,0.3c0.1-0.8,0.1-1.7,0.2-2.7c0-0.3,0.1-0.6,0.3-0.8c0.1-0.1,0.3-0.1,0.4-0.1h0.2
			c0.2,0,0.3,0.2,0.3,0.3c0,0.1,0,0.2,0,0.2c0,0.1,0,0.2,0,0.3c-0.1,1.2-0.2,2.5-0.2,3.7c0,1.6,0.1,3.2,0.2,4.8c0,0.1,0,0.1,0,0.2
			C150.8,89.1,150.5,89.3,150.1,89.3z M147.5,87.2c0.1,0,0.4-0.6,0.9-1.7c0.3-0.6,0.5-1.3,0.6-2c0-0.1-0.1-0.2-0.1-0.3
			c-0.1-0.1-0.2-0.1-0.3-0.1c-0.2,0-0.4,0.1-0.5,0.3c-0.3,0.5-0.5,1.2-0.6,1.8c-0.1,0.5-0.1,1.1-0.1,1.6
			C147.3,87,147.4,87.2,147.5,87.2z"/>
	</g>
</g>
</svg>
